<svg width="110" height="47" viewBox="0 0 110 47" fill="none" xmlns="http://www.w3.org/2000/svg">
<path fill-rule="evenodd" clip-rule="evenodd" d="M67.9349 36.4388C61.5714 40.9129 52.3478 43.3 44.4064 43.3C33.2714 43.3 23.247 39.3715 15.6631 32.8377C15.0673 32.3239 15.6011 31.6237 16.3161 32.0238C24.5006 36.5661 34.6203 39.2988 45.0738 39.2988C52.1237 39.2988 59.8792 37.9074 67.0102 35.0202C68.0875 34.5837 68.9884 35.6931 67.9349 36.4388Z" fill="#FF9900"/>
<path fill-rule="evenodd" clip-rule="evenodd" d="M70.5805 33.5516C69.7702 32.5604 65.2037 33.0833 63.154 33.3152C62.5296 33.3879 62.4342 32.8696 62.9967 32.4967C66.6337 30.0551 72.6016 30.7599 73.2975 31.5783C73.9935 32.4013 73.1164 38.1075 69.6987 40.8311C69.1743 41.2494 68.6738 41.0266 68.9074 40.4719C69.6749 38.6441 71.3956 34.5474 70.5805 33.5516Z" fill="#FF9900"/>
<path fill-rule="evenodd" clip-rule="evenodd" d="M63.2973 15.2598V12.8864C63.2973 12.5272 63.5833 12.2862 63.9265 12.2862H75.0663C75.4238 12.2862 75.7098 12.5317 75.7098 12.8864V14.9188C75.7051 15.2598 75.4048 15.7054 74.8709 16.4102L69.0984 24.2716C71.2434 24.2216 73.5076 24.5263 75.4524 25.572C75.891 25.8085 76.0101 26.154 76.0435 26.495V29.0276C76.0435 29.3732 75.6431 29.7778 75.2236 29.5687C71.7964 27.8545 67.2441 27.6681 63.4546 29.5869C63.0685 29.7869 62.6633 29.3868 62.6633 29.0413V26.636C62.6633 26.2495 62.6681 25.5902 63.0733 25.0037L69.761 15.8555H63.9408C63.5833 15.8555 63.2973 15.6145 63.2973 15.2598Z" fill="black"/>
<path fill-rule="evenodd" clip-rule="evenodd" d="M22.661 30.0689H19.2719C18.9477 30.0461 18.6903 29.8142 18.6665 29.5187V12.9273C18.6665 12.5954 18.9573 12.3317 19.3195 12.3317H22.4799C22.8088 12.3453 23.0709 12.5863 23.0948 12.8864V15.0553H23.1568C23.9814 12.9592 25.5306 11.9816 27.6184 11.9816C29.7396 11.9816 31.0647 12.9592 32.0181 15.0553C32.8379 12.9592 34.7017 11.9816 36.699 11.9816C38.1195 11.9816 39.6734 12.5409 40.622 13.7958C41.6945 15.1917 41.4752 17.2195 41.4752 18.9974L41.4705 29.4687C41.4705 29.8006 41.1797 30.0689 40.8174 30.0689H37.4331C37.0946 30.0461 36.8229 29.787 36.8229 29.4687V20.6751C36.8229 19.9749 36.8897 18.2289 36.7276 17.5651C36.475 16.4511 35.7171 16.1374 34.7351 16.1374C33.9152 16.1374 33.0572 16.6603 32.7093 17.4969C32.3613 18.3335 32.3946 19.7339 32.3946 20.6751V29.4687C32.3946 29.8006 32.1039 30.0689 31.7416 30.0689H28.3572C28.014 30.0461 27.7471 29.787 27.7471 29.4687L27.7423 20.6751C27.7423 18.8246 28.0617 16.101 25.6545 16.101C23.2187 16.101 23.3141 18.7564 23.3141 20.6751V29.4687C23.3141 29.8006 23.0233 30.0689 22.661 30.0689Z" fill="black"/>
<path fill-rule="evenodd" clip-rule="evenodd" d="M85.3003 11.9816C90.3292 11.9816 93.051 16.101 93.051 21.339C93.051 26.3996 90.0432 30.4144 85.3003 30.4144C80.362 30.4144 77.6736 26.295 77.6736 21.1616C77.6736 15.9964 80.3954 11.9816 85.3003 11.9816ZM85.3289 15.369C82.8312 15.369 82.6739 18.6154 82.6739 20.6388C82.6739 22.6666 82.6405 26.9952 85.3003 26.9952C87.9268 26.9952 88.0507 23.5033 88.0507 21.3753C88.0507 19.9749 87.9888 18.3017 87.5454 16.974C87.1641 15.8191 86.4062 15.369 85.3289 15.369Z" fill="black"/>
<path fill-rule="evenodd" clip-rule="evenodd" d="M99.572 30.0689H96.1972C95.8587 30.0461 95.587 29.787 95.587 29.4687L95.5823 12.8728C95.6109 12.5681 95.8921 12.3317 96.2353 12.3317H99.3766C99.6721 12.3453 99.9152 12.5363 99.9819 12.7955V15.3326H100.044C100.992 13.0637 102.322 11.9816 104.663 11.9816C106.183 11.9816 107.666 12.5045 108.619 13.9367C109.506 15.2644 109.506 17.4969 109.506 19.1019V29.546C109.468 29.837 109.186 30.0689 108.853 30.0689H105.454C105.144 30.0461 104.887 29.8279 104.854 29.546V20.5342C104.854 18.72 105.073 16.0647 102.732 16.0647C101.908 16.0647 101.15 16.5921 100.773 17.3923C100.297 18.4063 100.235 19.4157 100.235 20.5342V29.4687C100.23 29.8006 99.9343 30.0689 99.572 30.0689Z" fill="black"/>
<path fill-rule="evenodd" clip-rule="evenodd" d="M54.4169 22.1437C54.4169 23.4032 54.4503 24.4535 53.783 25.572C53.2443 26.4814 52.3863 27.0407 51.4377 27.0407C50.1364 27.0407 49.3737 26.0949 49.3737 24.699C49.3737 21.9437 51.9621 21.4435 54.4169 21.4435V22.1437ZM57.8347 30.0234C57.6106 30.2143 57.2865 30.228 57.0339 30.1007C55.9089 29.2095 55.7039 28.7957 55.089 27.9455C53.23 29.7551 51.9096 30.2962 49.5024 30.2962C46.6472 30.2962 44.4307 28.6184 44.4307 25.2583C44.4307 22.6348 45.9179 20.8479 48.0438 19.9749C49.8838 19.2019 52.453 19.0655 54.4169 18.8518V18.4335C54.4169 17.6651 54.4789 16.7557 54.0022 16.0919C53.5923 15.4963 52.801 15.2507 52.1003 15.2507C50.8085 15.2507 49.6598 15.8827 49.3785 17.1922C49.3213 17.4832 49.0973 17.7697 48.7874 17.7833L45.5032 17.4469C45.2267 17.3877 44.9169 17.174 44.9979 16.7694C45.751 12.9682 49.3547 11.8224 52.577 11.8224C54.2263 11.8224 56.3808 12.2407 57.6821 13.432C59.3314 14.9006 59.1741 16.8603 59.1741 18.9928V24.0307C59.1741 25.5448 59.8319 26.2086 60.4516 27.027C60.6661 27.318 60.7138 27.6681 60.4373 27.8864C59.7461 28.4365 58.5163 29.4596 57.8394 30.0325L57.8347 30.0234Z" fill="black"/>
<path fill-rule="evenodd" clip-rule="evenodd" d="M9.98627 22.1437C9.98627 23.4032 10.0196 24.4535 9.35229 25.572C8.81365 26.4814 7.96041 27.0406 7.00707 27.0406C5.70575 27.0406 4.94785 26.0949 4.94785 24.699C4.94785 21.9437 7.53617 21.4435 9.98627 21.4435V22.1437ZM13.404 30.0234C13.18 30.2143 12.8558 30.228 12.6032 30.1007C11.4782 29.2095 11.278 28.7957 10.6584 27.9455C8.79935 29.7551 7.48374 30.2962 5.07178 30.2962C2.22129 30.2962 0 28.6184 0 25.2583C0 22.6348 1.49198 20.8479 3.61317 19.9749C5.45312 19.2019 8.02238 19.0655 9.98627 18.8518V18.4335C9.98627 17.6651 10.0482 16.7557 9.57633 16.0919C9.16162 15.4963 8.37035 15.2507 7.67441 15.2507C6.38263 15.2507 5.22908 15.8827 4.94785 17.1922C4.89065 17.4832 4.66661 17.7697 4.36154 17.7833L1.07251 17.4469C0.796041 17.3877 0.490971 17.174 0.567238 16.7694C1.32515 12.9682 4.92401 11.8224 8.14631 11.8224C9.79559 11.8224 11.9501 12.2407 13.2515 13.432C14.9007 14.9006 14.7434 16.8603 14.7434 18.9928V24.0307C14.7434 25.5447 15.4013 26.2086 16.0209 27.027C16.2402 27.318 16.2879 27.6681 16.0114 27.8864C15.3202 28.4365 14.0904 29.4596 13.4135 30.0325L13.404 30.0234Z" fill="black"/>
</svg>
