<svg width="10" height="10" viewBox="0 0 10 10" fill="none" xmlns="http://www.w3.org/2000/svg">
<path d="M5 0.125C2.312 0.125 0.125 2.312 0.125 5C0.125 7.688 2.312 9.875 5 9.875C7.688 9.875 9.875 7.688 9.875 5C9.875 2.312 7.688 0.125 5 0.125ZM5 0.875C7.28225 0.875 9.125 2.71775 9.125 5C9.125 7.28225 7.28225 9.125 5 9.125C2.71775 9.125 0.875 7.28225 0.875 5C0.875 2.71775 2.71775 0.875 5 0.875ZM4.96475 2.75C3.71825 2.75 2.71475 3.7535 2.71475 5C2.71475 6.2465 3.71825 7.25 4.96475 7.25C5.86438 7.25 6.6335 6.71075 6.992 5.94913L6.3125 5.633C6.07062 6.14675 5.5655 6.5 4.96475 6.5C4.11088 6.5 3.46475 5.85388 3.46475 5C3.46475 4.14612 4.11088 3.5 4.96475 3.5C5.5655 3.5 6.071 3.85287 6.3125 4.36737L6.99237 4.05087C6.63312 3.28925 5.86438 2.75 4.96438 2.75H4.96475Z" fill="#BDB9B9"/>
</svg>
