<svg width="36" height="35" viewBox="0 0 36 35" fill="none" xmlns="http://www.w3.org/2000/svg">
<path d="M23.5 26C26.5376 26 29 23.5376 29 20.5C29 17.4624 26.5376 15 23.5 15C20.4624 15 18 17.4624 18 20.5C18 23.5376 20.4624 26 23.5 26Z" stroke="#5027B5" stroke-width="3" stroke-linecap="round" stroke-linejoin="round"/>
<path d="M19.8333 25.0833V33.3333L23.5 30.5833L27.1667 33.3333V25.0833" stroke="#5027B5" stroke-width="3" stroke-linecap="round" stroke-linejoin="round"/>
<path d="M14.3333 27.8333H5.16667C4.19421 27.8333 3.26158 27.447 2.57394 26.7594C1.88631 26.0717 1.5 25.1391 1.5 24.1666V5.83329C1.5 3.81663 3.15 2.16663 5.16667 2.16663H30.8333C31.8058 2.16663 32.7384 2.55293 33.4261 3.24057C34.1137 3.9282 34.5 4.86083 34.5 5.83329V24.1666C34.4993 24.8096 34.3296 25.4411 34.0078 25.9978C33.686 26.5545 33.2235 27.0168 32.6667 27.3383M7 9.49996H29M7 15H12.5M7 20.5H10.6667" stroke="#5027B5" stroke-width="3" stroke-linecap="round" stroke-linejoin="round"/>
</svg>
