<svg width="113" height="47" viewBox="0 0 113 47" fill="none" xmlns="http://www.w3.org/2000/svg">
<path d="M48.2376 24.8429C48.2376 29.9205 44.0733 33.6622 38.9626 33.6622C33.852 33.6622 29.6876 29.9205 29.6876 24.8429C29.6876 19.7294 33.852 16.0236 38.9626 16.0236C44.0733 16.0236 48.2376 19.7294 48.2376 24.8429ZM44.1775 24.8429C44.1775 21.6698 41.7639 19.4988 38.9626 19.4988C36.1613 19.4988 33.7478 21.6698 33.7478 24.8429C33.7478 27.9841 36.1613 30.187 38.9626 30.187C41.7639 30.187 44.1775 27.9801 44.1775 24.8429Z" fill="#EA4335"/>
<path d="M68.2468 24.8429C68.2468 29.9205 64.0824 33.6622 58.9718 33.6622C53.8612 33.6622 49.6968 29.9205 49.6968 24.8429C49.6968 19.7334 53.8612 16.0236 58.9718 16.0236C64.0824 16.0236 68.2468 19.7294 68.2468 24.8429ZM64.1867 24.8429C64.1867 21.6698 61.7731 19.4988 58.9718 19.4988C56.1705 19.4988 53.7569 21.6698 53.7569 24.8429C53.7569 27.9841 56.1705 30.187 58.9718 30.187C61.7731 30.187 64.1867 27.9801 64.1867 24.8429Z" fill="#FBBC05"/>
<path d="M87.4224 16.5564V32.3898C87.4224 38.9029 83.3956 41.563 78.6351 41.563C74.1539 41.563 71.4569 38.7041 70.4398 36.3661L73.9747 34.9624C74.6041 36.3979 76.1465 38.0917 78.631 38.0917C81.6782 38.0917 83.5665 36.2985 83.5665 32.9226V31.6542H83.4248C82.516 32.7238 80.7653 33.6582 78.5559 33.6582C73.933 33.6582 69.6978 29.8172 69.6978 24.8747C69.6978 19.8964 73.933 16.0236 78.5559 16.0236C80.7611 16.0236 82.5119 16.958 83.4248 17.9958H83.5665V16.5604H87.4224V16.5564ZM83.8541 24.8747C83.8541 21.7692 81.6823 19.4988 78.9186 19.4988C76.1173 19.4988 73.7704 21.7692 73.7704 24.8747C73.7704 27.9483 76.1173 30.187 78.9186 30.187C81.6823 30.187 83.8541 27.9483 83.8541 24.8747Z" fill="#4285F4"/>
<path d="M93.779 7.27589V33.1215H89.8188V7.27589H93.779Z" fill="#34A853"/>
<path d="M109.211 27.7456L112.363 29.7496C111.346 31.185 108.895 33.6582 104.659 33.6582C99.407 33.6582 95.4844 29.7854 95.4844 24.8389C95.4844 19.5942 99.4403 16.0196 104.205 16.0196C109.003 16.0196 111.35 19.6618 112.117 21.6301L112.538 22.6321L100.178 27.5149C101.124 29.2844 102.596 30.187 104.659 30.187C106.727 30.187 108.161 29.2168 109.211 27.7456ZM99.5112 24.5725L107.773 21.3001C107.319 20.1986 105.952 19.4312 104.343 19.4312C102.279 19.4312 99.407 21.1688 99.5112 24.5725Z" fill="#EA4335"/>
<path d="M14.6975 22.5484V18.8068H27.9159C28.0451 19.4589 28.1118 20.2303 28.1118 21.0653C28.1118 23.8725 27.3073 27.3438 24.7145 29.817C22.1925 32.3221 18.9702 33.6581 14.7016 33.6581C6.78972 33.6581 0.136719 27.5108 0.136719 19.9639C0.136719 12.417 6.78972 6.26968 14.7016 6.26968C19.0786 6.26968 22.1967 7.9079 24.5394 10.0431L21.7715 12.6834C20.0916 11.1804 17.8155 10.0113 14.6975 10.0113C8.91985 10.0113 4.40114 14.4528 4.40114 19.9639C4.40114 25.475 8.91985 29.9164 14.6975 29.9164C18.445 29.9164 20.5793 28.481 21.9466 27.1768C23.0554 26.1191 23.7849 24.6081 24.0725 22.5445L14.6975 22.5484Z" fill="#4285F4"/>
</svg>
