<svg width="164" height="47" viewBox="0 0 164 47" fill="none" xmlns="http://www.w3.org/2000/svg">
<path d="M163.858 21.2027V18.4539H160.279V14.1806L160.159 14.216L156.798 15.197L156.731 15.2162V18.4541H151.426V16.6503C151.426 15.8104 151.623 15.1677 152.011 14.739C152.396 14.3155 152.948 14.1002 153.65 14.1002C154.156 14.1002 154.679 14.2138 155.206 14.4377L155.338 14.4939V11.5991L155.276 11.5773C154.784 11.4089 154.116 11.3241 153.288 11.3241C152.244 11.3241 151.296 11.5407 150.469 11.9701C149.641 12.4001 148.99 13.014 148.534 13.7945C148.08 14.5741 147.849 15.4744 147.849 16.4708V18.4539H145.357V21.2027H147.849V32.7827H151.426V21.2027H156.731V28.5616C156.731 31.5923 158.23 33.1281 161.186 33.1281C161.671 33.1281 162.183 33.0739 162.704 32.9676C163.236 32.8584 163.598 32.7494 163.811 32.633L163.858 32.6064V29.8322L163.712 29.924C163.518 30.0474 163.276 30.1482 162.993 30.2232C162.708 30.2996 162.471 30.3378 162.286 30.3378C161.594 30.3378 161.082 30.1599 160.764 29.8086C160.442 29.4542 160.279 28.8345 160.279 27.9675V21.2027H163.858ZM137.369 30.3383C136.071 30.3383 135.047 29.9276 134.326 29.1187C133.6 28.3057 133.232 27.1467 133.232 25.674C133.232 24.1546 133.6 22.9655 134.326 22.1381C135.048 21.3162 136.062 20.8991 137.34 20.8991C138.58 20.8991 139.568 21.2975 140.275 22.0838C140.986 22.8743 141.346 24.0539 141.346 25.591C141.346 27.147 141.007 28.3422 140.338 29.1417C139.674 29.9352 138.675 30.3383 137.369 30.3383ZM137.528 18.1087C135.051 18.1087 133.084 18.8011 131.681 20.1665C130.279 21.5321 129.568 23.4219 129.568 25.7839C129.568 28.0274 130.262 29.8319 131.631 31.1466C132.999 32.4617 134.862 33.1278 137.166 33.1278C139.567 33.1278 141.495 32.4258 142.897 31.0415C144.299 29.6586 145.01 27.7867 145.01 25.4799C145.01 23.2013 144.343 21.3833 143.028 20.0775C141.712 18.771 139.862 18.1087 137.528 18.1087ZM123.801 18.1087C122.116 18.1087 120.722 18.5198 119.658 19.3304C118.586 20.1458 118.043 21.2152 118.043 22.5093C118.043 23.182 118.16 23.7795 118.391 24.2863C118.623 24.7948 118.983 25.2425 119.46 25.6182C119.934 25.9909 120.665 26.3813 121.634 26.7785C122.449 27.0983 123.057 27.3688 123.443 27.5819C123.82 27.7909 124.088 28.0009 124.239 28.2055C124.386 28.4057 124.46 28.6796 124.46 29.0177C124.46 29.9804 123.704 30.4488 122.149 30.4488C121.572 30.4488 120.915 30.3339 120.194 30.1074C119.478 29.8843 118.803 29.5576 118.191 29.1388L118.043 29.0372V32.3223L118.097 32.3465C118.603 32.5693 119.241 32.7573 119.994 32.9051C120.744 33.0531 121.426 33.1284 122.019 33.1284C123.847 33.1284 125.32 32.7154 126.394 31.9C127.475 31.079 128.023 29.9843 128.023 28.6455C128.023 27.6796 127.728 26.8514 127.147 26.1834C126.569 25.5208 125.567 24.9126 124.169 24.3749C123.055 23.9485 122.342 23.5946 122.048 23.3229C121.764 23.0604 121.62 22.6892 121.62 22.2192C121.62 21.8025 121.798 21.4686 122.163 21.1983C122.531 20.9266 123.043 20.7884 123.685 20.7884C124.281 20.7884 124.891 20.8782 125.497 21.0542C126.103 21.2302 126.636 21.4659 127.08 21.7542L127.226 21.8495V18.7333L127.17 18.7103C126.76 18.5427 126.219 18.3992 125.563 18.2828C124.909 18.1671 124.317 18.1087 123.801 18.1087ZM108.718 30.3383C107.42 30.3383 106.396 29.9276 105.675 29.1187C104.949 28.3057 104.581 27.147 104.581 25.674C104.581 24.1546 104.949 22.9655 105.675 22.1381C106.397 21.3162 107.41 20.8991 108.689 20.8991C109.929 20.8991 110.916 21.2975 111.624 22.0838C112.335 22.8743 112.695 24.0539 112.695 25.591C112.695 27.147 112.356 28.3422 111.687 29.1417C111.023 29.9352 110.024 30.3383 108.718 30.3383ZM108.877 18.1087C106.4 18.1087 104.432 18.8011 103.03 20.1665C101.628 21.5321 100.917 23.4219 100.917 25.7839C100.917 28.0283 101.611 29.8319 102.98 31.1466C104.348 32.4617 106.211 33.1278 108.515 33.1278C110.916 33.1278 112.844 32.4258 114.247 31.0415C115.648 29.6586 116.359 27.7867 116.359 25.4799C116.359 23.2013 115.692 21.3833 114.377 20.0775C113.061 18.771 111.21 18.1087 108.877 18.1087ZM95.487 20.9353V18.4539H91.9536V32.7824H95.487V25.4528C95.487 24.2065 95.7833 23.1826 96.3679 22.4092C96.945 21.6451 97.7141 21.2578 98.6531 21.2578C98.9714 21.2578 99.3287 21.3079 99.7156 21.4069C100.099 21.5054 100.376 21.6123 100.54 21.7247L100.688 21.8274V18.4294L100.631 18.406C100.302 18.2726 99.8362 18.2053 99.2472 18.2053C98.3592 18.2053 97.5646 18.4775 96.884 19.0133C96.2866 19.4843 95.8548 20.1301 95.5246 20.9353H95.487ZM85.6258 18.1087C84.0047 18.1087 82.5588 18.4403 81.3289 19.0939C80.0965 19.7491 79.1434 20.6844 78.4949 21.8737C77.8493 23.0601 77.5215 24.446 77.5215 25.9915C77.5215 27.3453 77.8393 28.5877 78.4675 29.6827C79.096 30.7795 79.9855 31.6375 81.1116 32.2326C82.2361 32.827 83.5357 33.1283 84.9746 33.1283C86.6538 33.1283 88.0876 32.8081 89.2371 32.1765L89.2835 32.1511V29.0632L89.135 29.1666C88.6143 29.5285 88.0324 29.8172 87.4063 30.0253C86.7818 30.2332 86.2124 30.3383 85.7131 30.3383C84.3266 30.3383 83.2136 29.9244 82.4057 29.1086C81.596 28.2917 81.1855 27.1445 81.1855 25.7011C81.1855 24.2485 81.6136 23.0719 82.4573 22.2037C83.2985 21.3381 84.4136 20.8991 85.7714 20.8991C86.9328 20.8991 88.0646 21.2742 89.1353 22.015L89.2835 22.1177V18.8641L89.2356 18.8384C88.8327 18.6232 88.2832 18.4456 87.6009 18.3109C86.9216 18.1765 86.2571 18.1087 85.6258 18.1087ZM75.088 18.4541H71.5545V32.7824H75.088V18.4541ZM73.3574 12.3501C72.7758 12.3501 72.2686 12.5389 71.8518 12.9132C71.4334 13.2884 71.2211 13.7609 71.2211 14.3185C71.2211 14.8674 71.4308 15.3312 71.8453 15.6965C72.2571 16.0608 72.766 16.2454 73.3575 16.2454C73.9489 16.2454 74.4596 16.0608 74.8763 15.6971C75.2958 15.3312 75.5085 14.8675 75.5085 14.3185C75.5085 13.7804 75.3015 13.3128 74.8936 12.9283C74.4861 12.5445 73.969 12.3501 73.3574 12.3501ZM64.5411 17.3969V32.7824H68.1472V12.7887H63.1562L56.8124 27.6394L50.6561 12.7887H45.4619V32.7822H48.8507V17.3954H48.967L55.4679 32.7824H58.0253L64.4248 17.3969H64.5411Z" fill="#706D6E"/>
<path d="M16.6225 21.9633H0V6.1076H16.6225V21.9633Z" fill="#F1511B"/>
<path d="M34.9757 21.9633H18.3535V6.1076H34.9757V21.9633Z" fill="#80CC28"/>
<path d="M16.622 39.476H0V23.6205H16.622V39.476Z" fill="#00ADEF"/>
<path d="M34.9757 39.476H18.3535V23.6205H34.9757V39.476Z" fill="#FBBC09"/>
</svg>
