<svg width="121" height="47" viewBox="0 0 121 47" fill="none" xmlns="http://www.w3.org/2000/svg">
<path d="M37.9251 31.3065L39.3932 28.0334C41.0006 29.1689 43.0973 29.7699 45.1945 29.7699C46.7323 29.7699 47.7107 29.2023 47.7107 28.3341C47.6756 25.9292 38.4494 27.7996 38.3792 21.7533C38.3441 18.6805 41.2102 16.3091 45.2647 16.3091C47.6756 16.3091 50.0875 16.8771 51.7998 18.1799L50.4279 21.5229C48.8525 20.5566 46.9067 19.883 45.0546 19.883C43.7965 19.883 42.9575 20.4505 42.9575 21.1858C42.9926 23.5573 52.2895 22.2544 52.3942 28.0334C52.3942 31.1731 49.5978 33.3777 45.6135 33.3777C42.6783 33.3777 39.9872 32.7098 37.9246 31.3065H37.9251ZM96.3831 26.8481C96.0125 27.4762 95.4735 27.9989 94.8212 28.3627C94.169 28.7265 93.427 28.9183 92.6715 28.9183C90.3167 28.9183 88.408 27.0939 88.408 24.8434C88.408 22.5929 90.3167 20.7684 92.6715 20.7684C93.427 20.7685 94.169 20.9603 94.8212 21.3241C95.4735 21.6879 96.0125 22.2106 96.3831 22.8387L100.465 20.6776C98.9359 18.0714 96.0197 16.3091 92.6715 16.3091C87.7398 16.3091 83.742 20.1297 83.742 24.8434C83.742 29.5566 87.7398 33.3777 92.6715 33.3777C96.0197 33.3777 98.9359 31.6154 100.465 29.0092L96.3831 26.8481ZM55.0427 33.0435H60.1453V9.2048H55.0432L55.0427 33.0435ZM103.042 9.2048V33.0435H108.144V25.9015L114.19 33.0435H120.713L113.024 24.5589L120.153 16.6418H113.911L108.144 23.224V9.2048H103.042ZM75.8655 16.6428V18.5806C75.027 17.2443 72.9649 16.3091 70.7981 16.3091C66.3245 16.3091 62.7948 20.0838 62.7948 24.8267C62.7948 29.5695 66.3245 33.3777 70.7981 33.3777C72.9649 33.3777 75.027 32.4425 75.8655 31.1062V33.0435H80.9681V16.6428H75.8655ZM75.8655 26.8811C75.1317 28.0501 73.594 28.9179 71.8817 28.9179C69.5264 28.9179 67.6177 27.0939 67.6177 24.8434C67.6177 22.5929 69.5264 20.7684 71.8817 20.7684C73.594 20.7684 75.1317 21.6702 75.8655 22.8721V26.8811Z" fill="black"/>
<path d="M10.9783 8.67812C9.32472 8.67812 7.98442 9.95946 7.98442 11.5396C7.98402 11.915 8.06115 12.2868 8.21139 12.6338C8.36163 12.9808 8.58205 13.2961 8.86006 13.5618C9.13806 13.8275 9.46822 14.0384 9.83166 14.1824C10.1951 14.3264 10.5847 14.4007 10.9783 14.4011H13.9727V11.5396C13.9733 10.7814 13.6582 10.054 13.0967 9.51739C12.5352 8.98077 11.7732 8.67888 10.9783 8.67812ZM10.9783 16.3088H2.99412C1.34055 16.3088 0.000244141 17.5901 0.000244141 19.1708C0.000244141 20.7509 1.34055 22.0323 2.99412 22.0323H10.9788C12.6319 22.0323 13.9727 20.7509 13.9727 19.1708C13.9727 17.5901 12.6319 16.3088 10.9783 16.3088Z" fill="#36C5F0"/>
<path d="M29.9411 19.1708C29.9411 17.5901 28.6003 16.3088 26.9467 16.3088C25.2932 16.3088 23.9529 17.5901 23.9529 19.1708V22.0323H26.9467C27.7416 22.0315 28.5036 21.7296 29.0652 21.193C29.6267 20.6564 29.9418 19.929 29.9411 19.1708ZM21.9569 19.1708V11.5396C21.9576 10.7814 21.6425 10.054 21.081 9.51739C20.5194 8.98077 19.7574 8.67888 18.9626 8.67812C17.309 8.67812 15.9687 9.95946 15.9687 11.5396V19.1703C15.9687 20.7514 17.309 22.0328 18.9626 22.0328C19.7574 22.032 20.5194 21.7301 21.081 21.1935C21.6425 20.6569 21.9576 19.9295 21.9569 19.1713" fill="#2EB67D"/>
<path d="M18.9626 37.2942C19.7575 37.2934 20.5195 36.9915 21.081 36.4549C21.6426 35.9183 21.9577 35.1909 21.957 34.4327C21.9577 33.6745 21.6426 32.9471 21.081 32.4105C20.5195 31.8738 19.7575 31.5719 18.9626 31.5712H15.9688V34.4327C15.9688 36.0129 17.3091 37.2942 18.9626 37.2942ZM18.9626 29.6635H26.9473C28.6004 29.6635 29.9412 28.3822 29.9412 26.8015C29.9418 26.0433 29.6268 25.3159 29.0652 24.7793C28.5037 24.2427 27.7417 23.9408 26.9468 23.94H18.9626C17.3091 23.94 15.9688 25.2214 15.9688 26.8015C15.9684 27.1769 16.0455 27.5487 16.1957 27.8957C16.346 28.2427 16.5664 28.558 16.8444 28.8237C17.1224 29.0895 17.4526 29.3003 17.816 29.4443C18.1794 29.5884 18.5691 29.6627 18.9626 29.663" fill="#ECB22E"/>
<path d="M1.51064e-06 26.8015C-0.000393626 27.1769 0.0767319 27.5487 0.226974 27.8957C0.377217 28.2427 0.597634 28.558 0.875642 28.8237C1.15365 29.0895 1.4838 29.3003 1.84725 29.4443C2.2107 29.5884 2.60032 29.6627 2.99388 29.663C3.78875 29.6623 4.55075 29.3604 5.11229 28.8238C5.67383 28.2871 5.98892 27.5597 5.98826 26.8015V23.94H2.99388C1.3403 23.94 1.51064e-06 25.2214 1.51064e-06 26.8015ZM7.98417 26.8015V34.4322C7.98417 36.0129 9.32448 37.2942 10.9781 37.2942C11.7729 37.2934 12.5349 36.9915 13.0965 36.4549C13.658 35.9183 13.9731 35.1909 13.9724 34.4327V26.8015C13.9728 26.4261 13.8957 26.0543 13.7454 25.7073C13.5951 25.3603 13.3747 25.0449 13.0966 24.7792C12.8186 24.5134 12.4883 24.3026 12.1248 24.1586C11.7613 24.0146 11.3716 23.9403 10.9781 23.94C9.32448 23.94 7.98417 25.2214 7.98417 26.8015Z" fill="#E01E5A"/>
</svg>
