<svg width="14" height="14" viewBox="0 0 14 14" fill="none" xmlns="http://www.w3.org/2000/svg">
<path d="M6.49621 1.78269C6.65053 1.33874 6.72768 1.11677 6.84178 1.05525C6.94052 1.00201 7.05943 1.00201 7.15818 1.05525C7.27227 1.11677 7.34943 1.33874 7.50374 1.78269L8.52392 4.71761C8.56784 4.84397 8.5898 4.90714 8.62938 4.95419C8.66433 4.99575 8.70891 5.02814 8.75924 5.04854C8.81622 5.07164 8.88309 5.073 9.01683 5.07573L12.1234 5.13903C12.5933 5.14861 12.8282 5.1534 12.922 5.2429C13.0031 5.32036 13.0399 5.43344 13.0198 5.54381C12.9965 5.67133 12.8092 5.81331 12.4347 6.09726L9.95868 7.97445C9.85208 8.05526 9.79878 8.09567 9.76627 8.14784C9.73754 8.19393 9.72051 8.24634 9.71666 8.30051C9.7123 8.36183 9.73167 8.42585 9.7704 8.55389L10.6702 11.5279C10.8063 11.9778 10.8743 12.2027 10.8182 12.3196C10.7696 12.4207 10.6734 12.4906 10.5622 12.5055C10.4337 12.5228 10.2408 12.3886 9.85506 12.1202L7.30461 10.3454C7.19481 10.269 7.13991 10.2308 7.08024 10.216C7.02753 10.2029 6.97242 10.2029 6.91971 10.216C6.86005 10.2308 6.80515 10.269 6.69535 10.3454L4.1449 12.1202C3.75911 12.3886 3.56622 12.5228 3.43775 12.5055C3.32657 12.4906 3.23037 12.4207 3.18178 12.3196C3.12564 12.2027 3.19369 11.9778 3.32979 11.5279L4.22955 8.55389C4.26829 8.42585 4.28765 8.36183 4.28329 8.30051C4.27944 8.24634 4.26241 8.19393 4.23369 8.14784C4.20117 8.09567 4.14787 8.05526 4.04128 7.97445L1.56525 6.09726C1.19072 5.81331 1.00345 5.67133 0.980204 5.54381C0.960081 5.43344 0.996825 5.32036 1.07798 5.2429C1.17174 5.1534 1.40669 5.14861 1.87659 5.13903L4.98313 5.07573C5.11687 5.073 5.18374 5.07164 5.24071 5.04854C5.29104 5.02814 5.33562 4.99575 5.37058 4.95419C5.41015 4.90714 5.43211 4.84397 5.47603 4.71761L6.49621 1.78269Z" fill="#EBE100" stroke="#EBE100" stroke-width="1.33333" stroke-linecap="round" stroke-linejoin="round"/>
</svg>
