<svg width="165" height="47" viewBox="0 0 165 47" fill="none" xmlns="http://www.w3.org/2000/svg">
<g clip-path="url(#clip0_82_597)">
<path d="M50.825 29.0458C50.35 29.1591 49.7563 29.2723 49.1625 29.2723C47.975 29.2723 47.5 28.5927 47.5 27.46V22.3627H50.825C51.6562 22.3627 52.4875 21.7964 52.4875 20.8902C52.4875 19.984 51.775 19.4177 50.825 19.4177H47.5V17.7186C47.5 16.6991 46.6688 16.0195 45.7188 16.0195C44.7687 16.0195 43.9375 16.8124 43.9375 17.7186V27.5732C43.9375 30.405 45.3625 32.4439 48.6875 32.4439C49.6375 32.4439 50.9438 32.3307 51.8938 31.8776C52.725 31.5378 52.9625 30.9714 52.9625 30.405C52.9625 29.6121 52.1312 28.8192 50.825 29.0458ZM62.7 18.9646C62.225 18.8513 61.275 18.738 60.4438 18.738C57.475 18.738 55.8125 20.4371 55.8125 23.0424V30.7449C55.8125 31.651 56.6437 32.4439 57.5938 32.4439C58.5438 32.4439 59.375 31.651 59.375 30.7449V23.722C59.375 22.5893 59.85 22.1362 60.6812 22.1362C61.5125 22.1362 61.9875 22.3627 62.7 22.3627C63.7687 22.3627 64.3625 21.4566 64.3625 20.7769C64.2438 19.8708 63.7687 19.3044 62.7 18.9646ZM72.5562 18.738C69.2312 18.738 66.8563 20.7769 66.5 24.0618C66.5 24.8547 66.3812 26.214 66.5 27.2334C66.7375 30.405 69.1125 32.5572 72.675 32.5572C74.3375 32.5572 75.8812 32.2174 76.8312 31.651C77.5437 31.198 77.6625 30.7449 77.6625 30.2918C77.6625 29.3856 76.8313 28.4794 75.4062 28.9325C74.575 29.2723 73.625 29.4989 72.675 29.4989C71.0125 29.4989 69.7063 28.706 69.7063 27.1202V26.7803H76.475C77.6625 26.7803 78.2563 26.1007 78.2563 25.0813V24.5149C78.375 21.0035 76 18.738 72.5562 18.738ZM74.8125 24.5149H69.825C69.825 22.8158 70.6562 21.6831 72.5562 21.6831C74.2187 21.6831 75.1688 22.7026 75.05 24.1751C75.05 24.4016 75.05 24.5149 74.8125 24.5149ZM86.8062 18.738C83.4812 18.738 81.1063 20.7769 80.75 24.0618C80.75 24.8547 80.6312 26.214 80.75 27.2334C80.9875 30.405 83.3625 32.5572 86.925 32.5572C88.5875 32.5572 90.1312 32.2174 91.0812 31.651C91.7937 31.198 91.9125 30.7449 91.9125 30.2918C91.9125 29.3856 91.0813 28.4794 89.6562 28.9325C88.825 29.2723 87.875 29.4989 86.925 29.4989C85.2625 29.4989 83.9562 28.706 83.9562 27.1202V26.7803H90.725C91.9125 26.7803 92.5063 26.1007 92.5063 25.0813V24.5149C92.625 21.0035 90.25 18.738 86.8062 18.738ZM89.0625 24.5149H84.075C84.075 22.8158 84.9062 21.6831 86.8062 21.6831C88.4687 21.6831 89.4187 22.7026 89.3 24.1751C89.3 24.4016 89.3 24.5149 89.0625 24.5149ZM146.775 24.4016L144.875 23.9485C143.688 23.722 143.331 23.3822 143.331 22.8158C143.331 22.2495 143.925 21.7964 145.231 21.7964C145.944 21.7964 146.775 22.0229 147.487 22.3627C148.319 22.8158 149.269 22.7026 149.744 22.1362C150.337 21.5698 150.338 20.5504 149.625 19.8708C148.675 19.1911 147.013 18.738 145.35 18.738C142.263 18.738 140.006 20.2106 140.006 22.9291C140.006 25.0813 141.669 26.214 143.806 26.7803C144.875 27.0069 144.756 27.0069 145.706 27.2334C146.775 27.46 147.25 27.9131 147.25 28.3662C147.25 29.0458 146.656 29.4989 145.231 29.4989C144.044 29.4989 142.975 29.1591 142.144 28.706C141.312 28.1396 140.363 28.3662 139.888 29.0458C139.413 29.7254 139.531 30.6316 140.244 31.0847C141.194 31.8776 142.738 32.5572 145.231 32.5572C148.319 32.5572 150.694 30.9714 150.694 28.2529C150.694 26.214 149.387 24.968 146.775 24.4016ZM163.281 26.7803C164.469 26.7803 165.062 26.1007 165.062 25.0813V24.5149C165.062 21.0035 162.688 18.738 159.244 18.738C155.919 18.738 153.544 20.7769 153.188 24.0618C153.188 24.8547 153.069 26.214 153.188 27.2334C153.425 30.405 155.8 32.5572 159.362 32.5572C161.025 32.5572 162.569 32.2174 163.519 31.651C164.231 31.198 164.35 30.7449 164.35 30.2918C164.35 29.3856 163.519 28.4794 162.094 28.9325C161.263 29.2723 160.312 29.4989 159.362 29.4989C157.7 29.4989 156.394 28.706 156.394 27.1202V26.7803H163.281ZM159.244 21.6831C160.906 21.6831 161.856 22.7026 161.737 24.1751C161.737 24.4016 161.619 24.5149 161.5 24.5149H156.513C156.513 22.8158 157.463 21.6831 159.244 21.6831ZM115.781 18.738C112.219 18.738 109.606 20.8902 109.25 23.8353C109.131 24.8547 109.131 26.4405 109.25 27.46C109.488 30.4051 112.219 32.5572 115.781 32.5572C119.344 32.5572 121.956 30.4051 122.194 27.46C122.313 26.4405 122.313 24.968 122.194 23.9485C121.956 20.8902 119.344 18.738 115.781 18.738ZM118.631 26.8936C118.513 28.3662 117.444 29.2723 115.781 29.2723C114.119 29.2723 113.05 28.2529 112.931 26.8936C112.931 26.214 112.931 25.0813 112.931 24.4016C113.05 22.9291 114.119 22.0229 115.781 22.0229C117.444 22.0229 118.513 23.0424 118.631 24.4016C118.75 25.0813 118.75 26.214 118.631 26.8936ZM101.65 18.738C100.344 18.738 98.9188 19.1911 98.4438 19.7575V16.1328C98.4438 15.1133 97.7313 14.4337 96.7812 14.4337C95.8312 14.4337 95.1187 15.2266 95.1187 16.1328V30.7449C95.1187 31.651 95.95 32.4439 96.9 32.4439C97.85 32.4439 98.5625 31.651 98.5625 30.7449V23.1556C99.1562 22.5893 100.106 22.1362 101.294 22.1362C102.719 22.1362 103.55 22.9291 103.55 24.5149V30.7449C103.55 31.7643 104.262 32.5572 105.212 32.5572C106.281 32.5572 106.994 31.7643 106.994 30.7449V24.2884C106.875 20.6637 104.975 18.738 101.65 18.738ZM134.9 18.8513C133.95 18.8513 133.119 19.6442 133.119 20.5504V28.5927C132.525 28.9325 131.694 29.2723 130.625 29.2723C129.2 29.2723 128.131 28.4794 128.131 26.8936V20.5504C128.131 19.5309 127.3 18.738 126.35 18.738C125.281 18.738 124.688 19.5309 124.688 20.5504V27.0069C124.688 30.5183 126.825 32.4439 130.506 32.4439C133.238 32.4439 135.138 31.5378 135.969 30.9714C136.444 30.7449 136.562 30.405 136.562 29.8387V20.5504C136.562 19.6442 135.85 18.8513 134.9 18.8513Z" fill="#3E474F"/>
<path d="M30.875 11.8285C29.5687 11.1489 27.55 12.2816 26.3625 14.3205L24.1062 17.9452C23.275 19.4177 23.3938 21.2301 24.4625 22.7026L24.5813 22.8159C25.65 24.1751 26.9563 25.5344 27.4313 25.9875C27.6688 26.214 27.9063 26.5539 28.025 27.0069C28.3813 28.2529 27.6688 29.6122 26.2438 29.952C24.9375 30.2918 23.5125 29.6122 23.1562 28.2529C23.0375 27.9131 23.0375 27.5733 23.0375 27.3468C23.1562 26.7804 22.9188 25.9875 22.0875 25.0813C21.2563 24.2884 19.7125 25.8742 19.1188 27.46V27.5733C18.6438 29.1591 18.2875 30.6316 18.4062 30.7449C18.4062 30.8582 18.525 30.8582 18.525 30.9715C19.2375 32.3307 18.7625 33.9165 17.3375 34.5962C15.9125 35.2758 14.25 34.8227 13.5375 33.4634C12.825 32.1042 13.3 30.5184 14.725 29.8387C14.8437 29.8387 14.8438 29.7255 14.9625 29.7255C15.0813 29.7255 15.3187 29.0458 15.675 28.1397C15.9125 27.3468 16.0313 27.0069 16.15 26.6671C16.2688 26.214 16.5063 25.0813 16.3875 24.6282C16.2688 24.0619 15.675 24.0619 15.0812 24.4017C14.725 24.6282 14.0125 25.1946 13.775 25.4211C13.1813 25.8742 12.7063 26.5539 12.4688 27.1202C12.35 27.3468 12.1125 27.6866 11.875 27.9131C10.8063 28.706 9.2625 28.5927 8.3125 27.5733C7.48125 26.5539 7.6 25.0813 8.66875 24.1751C9.025 23.9486 9.38125 23.7221 9.7375 23.7221C10.3312 23.6088 12.4688 22.3628 13.775 21.4566C14.0125 21.3433 14.3687 21.0035 14.4875 20.8903C14.8437 20.4372 14.4875 20.0974 14.1312 20.0974C13.0625 20.2106 11.875 20.3239 11.6375 20.6637C11.5188 20.777 11.4 21.0035 11.1625 21.1168C10.2125 21.7964 8.7875 21.5699 8.075 20.6637C7.3625 19.7575 7.6 18.3983 8.55 17.7186C8.90625 17.3788 9.5 17.2656 9.85625 17.2656C10.6875 17.2656 12.825 17.7186 14.4875 17.3788L14.9625 17.2656C16.7438 16.9257 18.8813 15.4532 19.7125 13.9807C19.7125 13.9807 20.5438 12.6214 21.4938 10.9223C22.5625 9.22324 22.4437 7.29762 21.375 6.73126L19.3562 5.59854C18.2875 5.03218 16.7437 5.03218 15.675 5.59854L1.9 13.0745C0.83125 13.6408 0 15.0001 0 16.1328V30.6316C0 31.7644 0.83125 33.1236 1.9 33.69L15.675 41.1659C16.7437 41.7323 18.4062 41.7323 19.3562 41.1659L33.1312 33.69C34.2 33.1236 35.0312 31.7644 35.0312 30.6316V16.1328C35.0312 15.0001 34.2 13.6408 33.1312 13.0745C33.1312 13.0745 32.1813 12.5081 30.875 11.8285Z" fill="#5FCF80"/>
</g>
<defs>
<clipPath id="clip0_82_597">
<rect width="165" height="45.7857" fill="white" transform="translate(0 0.376007)"/>
</clipPath>
</defs>
</svg>
