<svg width="32" height="32" viewBox="0 0 32 32" fill="none" xmlns="http://www.w3.org/2000/svg">
<circle cx="16" cy="16" r="16" fill="#D9D9D9"/>
<path d="M22.89 11.0122C23.698 10.5162 24.233 9.83922 24.495 8.97822C23.7571 9.37733 22.9651 9.66734 22.144 9.83922C21.441 9.08322 20.551 8.69922 19.484 8.69922C18.441 8.69922 17.56 9.06522 16.841 9.77722C16.4938 10.1153 16.2192 10.5208 16.0342 10.9687C15.8492 11.4166 15.7576 11.8976 15.765 12.3822C15.765 12.6912 15.804 12.9672 15.882 13.2012C12.806 13.0962 10.26 11.8202 8.25399 9.36422C7.91399 9.96522 7.74399 10.5772 7.74399 11.2102C7.74399 12.5112 8.29299 13.5422 9.38899 14.2992C8.76399 14.2462 8.21299 14.0882 7.74399 13.8292C7.74399 14.7582 8.01699 15.5342 8.56399 16.2172C9.09535 16.8828 9.84417 17.3398 10.679 17.5082C10.367 17.5882 10.038 17.6262 9.69999 17.6262C9.38799 17.6262 9.16699 17.6002 9.03599 17.5432C9.26599 18.3002 9.69999 18.9142 10.327 19.3842C10.9468 19.8549 11.7008 20.1152 12.479 20.1272C11.147 21.1722 9.62399 21.6892 7.90099 21.6892C7.47899 21.6892 7.17999 21.6832 6.99899 21.6512C8.69599 22.7532 10.585 23.3002 12.675 23.3002C14.814 23.3002 16.704 22.7582 18.349 21.6742C19.994 20.5962 21.208 19.2662 21.988 17.7002C22.7593 16.1849 23.161 14.5085 23.16 12.8082V12.3402C23.879 11.8101 24.5014 11.1603 25 10.4192C24.3266 10.7111 23.6168 10.9106 22.89 11.0122Z" fill="#1B1B1B"/>
</svg>
