<svg width="32" height="32" viewBox="0 0 32 32" fill="none" xmlns="http://www.w3.org/2000/svg">
<circle cx="16" cy="16" r="16" fill="#D9D9D9"/>
<g clip-path="url(#clip0_25_322)">
<path d="M24.8819 12.2309C24.8819 10.6489 23.7182 9.37621 22.2803 9.37621C20.3327 9.28516 18.3463 9.25 16.3164 9.25H15.6836C13.6586 9.25 11.6687 9.28516 9.72109 9.37656C8.28672 9.37656 7.12305 10.6562 7.12305 12.2383C7.03516 13.4895 6.99789 14.7411 7 15.9926C6.99648 17.2442 7.03633 18.4969 7.11953 19.7508C7.11953 21.3329 8.2832 22.6161 9.71758 22.6161C11.7637 22.711 13.8625 22.7532 15.9965 22.7496C18.134 22.7567 20.227 22.7121 22.2754 22.6161C23.7133 22.6161 24.877 21.3329 24.877 19.7508C24.9613 18.4957 25 17.2442 24.9965 15.9891C25.0045 14.7375 24.9662 13.4848 24.8819 12.2309ZM14.2773 19.4414V12.5332L19.375 15.9856L14.2773 19.4414Z" fill="#1B1B1B"/>
</g>
<defs>
<clipPath id="clip0_25_322">
<rect width="18" height="18" fill="white" transform="translate(7 7)"/>
</clipPath>
</defs>
</svg>
